<svg width="286" height="267" viewBox="0 0 286 267" fill="none" xmlns="http://www.w3.org/2000/svg">
<g filter="url(#filter0_i)">
<rect x="0.575684" y="152.911" width="28.362" height="67.7537" rx="14.181" fill="#708AA1"/>
</g>
<rect x="3.72702" y="156.062" width="22.0593" height="61.451" rx="11.0297" stroke="#485D6F" stroke-width="6.30267"/>
<rect x="260.561" y="156.062" width="22.0593" height="61.451" rx="11.0297" fill="#708AA1" stroke="#485D6F" stroke-width="6.30267"/>
<line x1="143.961" y1="45.7655" x2="143.961" y2="100.914" stroke="#485D6F" stroke-width="6.30267"/>
<g filter="url(#filter1_i)">
<rect x="109.297" y="74.1276" width="69.3294" height="40.9674" rx="20.4837" fill="#708AA1"/>
</g>
<rect x="112.448" y="77.2789" width="63.0267" height="34.6647" rx="17.3323" stroke="#485D6F" stroke-width="6.30267"/>
<g filter="url(#filter2_i)">
<circle cx="143.961" cy="25.2819" r="25.2107" fill="#708AA1"/>
</g>
<circle cx="143.961" cy="25.2819" r="22.0593" stroke="#485D6F" stroke-width="6.30267"/>
<g filter="url(#filter3_i)">
<path d="M14.7568 182.849C14.7568 134.987 53.5566 96.1868 101.419 96.1868H184.929C232.791 96.1868 271.591 134.987 271.591 182.849V223.816C271.591 247.312 252.544 266.359 229.048 266.359H57.2999C33.804 266.359 14.7568 247.312 14.7568 223.816V182.849Z" fill="#708AA1"/>
</g>
<path d="M17.9082 182.849C17.9082 136.727 55.2971 99.3382 101.419 99.3382H184.929C231.051 99.3382 268.439 136.727 268.439 182.849V223.816C268.439 245.571 250.803 263.208 229.048 263.208H57.2999C35.5444 263.208 17.9082 245.571 17.9082 223.816V182.849Z" stroke="#485D6F" stroke-width="6.30267"/>
<circle cx="88.8131" cy="156.062" r="31.5134" fill="white" stroke="#485D6F" stroke-width="6.30267"/>
<circle cx="88.8131" cy="156.062" r="17.3323" fill="#0C0C0C"/>
<circle cx="82.5104" cy="152.911" r="6.30267" fill="white"/>
<circle cx="195.959" cy="156.062" r="31.5134" fill="white" stroke="#485D6F" stroke-width="6.30267"/>
<circle cx="195.959" cy="156.062" r="17.3323" fill="#0C0C0C"/>
<circle cx="189.656" cy="152.911" r="6.30267" fill="white"/>
<path d="M112.448 211.211C125.053 235.634 160.506 235.634 173.899 211.211" stroke="#485D6F" stroke-width="6.30267" stroke-linecap="round"/>
<defs>
<filter id="filter0_i" x="0.575684" y="152.911" width="28.362" height="67.7537" filterUnits="userSpaceOnUse" color-interpolation-filters="sRGB">
<feFlood flood-opacity="0" result="BackgroundImageFix"/>
<feBlend mode="normal" in="SourceGraphic" in2="BackgroundImageFix" result="shape"/>
<feColorMatrix in="SourceAlpha" type="matrix" values="0 0 0 0 0 0 0 0 0 0 0 0 0 0 0 0 0 0 127 0" result="hardAlpha"/>
<feOffset dx="12.6053" dy="4.727"/>
<feComposite in2="hardAlpha" operator="arithmetic" k2="-1" k3="1"/>
<feColorMatrix type="matrix" values="0 0 0 0 1 0 0 0 0 1 0 0 0 0 1 0 0 0 0.25 0"/>
<feBlend mode="normal" in2="shape" result="effect1_innerShadow"/>
</filter>
<filter id="filter1_i" x="109.297" y="74.1276" width="69.3294" height="40.9674" filterUnits="userSpaceOnUse" color-interpolation-filters="sRGB">
<feFlood flood-opacity="0" result="BackgroundImageFix"/>
<feBlend mode="normal" in="SourceGraphic" in2="BackgroundImageFix" result="shape"/>
<feColorMatrix in="SourceAlpha" type="matrix" values="0 0 0 0 0 0 0 0 0 0 0 0 0 0 0 0 0 0 127 0" result="hardAlpha"/>
<feOffset dx="12.6053" dy="4.727"/>
<feComposite in2="hardAlpha" operator="arithmetic" k2="-1" k3="1"/>
<feColorMatrix type="matrix" values="0 0 0 0 1 0 0 0 0 1 0 0 0 0 1 0 0 0 0.25 0"/>
<feBlend mode="normal" in2="shape" result="effect1_innerShadow"/>
</filter>
<filter id="filter2_i" x="118.751" y="0.0711975" width="50.4214" height="50.4214" filterUnits="userSpaceOnUse" color-interpolation-filters="sRGB">
<feFlood flood-opacity="0" result="BackgroundImageFix"/>
<feBlend mode="normal" in="SourceGraphic" in2="BackgroundImageFix" result="shape"/>
<feColorMatrix in="SourceAlpha" type="matrix" values="0 0 0 0 0 0 0 0 0 0 0 0 0 0 0 0 0 0 127 0" result="hardAlpha"/>
<feOffset dx="12.6053" dy="4.727"/>
<feComposite in2="hardAlpha" operator="arithmetic" k2="-1" k3="1"/>
<feColorMatrix type="matrix" values="0 0 0 0 1 0 0 0 0 1 0 0 0 0 1 0 0 0 0.25 0"/>
<feBlend mode="normal" in2="shape" result="effect1_innerShadow"/>
</filter>
<filter id="filter3_i" x="14.7568" y="96.1868" width="256.834" height="170.172" filterUnits="userSpaceOnUse" color-interpolation-filters="sRGB">
<feFlood flood-opacity="0" result="BackgroundImageFix"/>
<feBlend mode="normal" in="SourceGraphic" in2="BackgroundImageFix" result="shape"/>
<feColorMatrix in="SourceAlpha" type="matrix" values="0 0 0 0 0 0 0 0 0 0 0 0 0 0 0 0 0 0 127 0" result="hardAlpha"/>
<feOffset dx="12.6053" dy="4.727"/>
<feComposite in2="hardAlpha" operator="arithmetic" k2="-1" k3="1"/>
<feColorMatrix type="matrix" values="0 0 0 0 1 0 0 0 0 1 0 0 0 0 1 0 0 0 0.25 0"/>
<feBlend mode="normal" in2="shape" result="effect1_innerShadow"/>
</filter>
</defs>
</svg>
