<svg width="286" height="267" viewBox="0 0 286 267" fill="none" xmlns="http://www.w3.org/2000/svg">
<g filter="url(#filter0_i)">
<rect x="0.189941" y="152.911" width="28.362" height="67.7537" rx="14.181" fill="#7E57C2"/>
</g>
<rect x="3.34128" y="156.062" width="22.0593" height="61.451" rx="11.0297" stroke="#602CBC" stroke-width="6.30267"/>
<rect x="260.175" y="156.062" width="22.0593" height="61.451" rx="11.0297" fill="#7E57C2" stroke="#602CBC" stroke-width="6.30267"/>
<line x1="143.576" y1="45.7655" x2="143.576" y2="100.914" stroke="#602CBC" stroke-width="6.30267"/>
<g filter="url(#filter1_i)">
<rect x="108.911" y="74.1276" width="69.3294" height="40.9674" rx="20.4837" fill="#7E57C2"/>
</g>
<rect x="112.062" y="77.2789" width="63.0267" height="34.6647" rx="17.3323" stroke="#602CBC" stroke-width="6.30267"/>
<g filter="url(#filter2_i)">
<circle cx="143.575" cy="25.2819" r="25.2107" fill="#7E57C2"/>
</g>
<circle cx="143.575" cy="25.2819" r="22.0593" stroke="#602CBC" stroke-width="6.30267"/>
<g filter="url(#filter3_i)">
<path d="M14.3711 182.849C14.3711 134.987 53.1709 96.1868 101.033 96.1868H184.543C232.405 96.1868 271.205 134.987 271.205 182.849V223.816C271.205 247.312 252.158 266.359 228.662 266.359H56.9141C33.4182 266.359 14.3711 247.312 14.3711 223.816V182.849Z" fill="#7E57C2"/>
</g>
<path d="M17.5224 182.849C17.5224 136.727 54.9113 99.3382 101.033 99.3382H184.543C230.665 99.3382 268.054 136.727 268.054 182.849V223.816C268.054 245.571 250.417 263.208 228.662 263.208H56.9141C35.1587 263.208 17.5224 245.571 17.5224 223.816V182.849Z" stroke="#602CBC" stroke-width="6.30267"/>
<circle cx="88.4274" cy="156.062" r="31.5134" fill="white" stroke="#602CBC" stroke-width="6.30267"/>
<circle cx="88.4273" cy="156.062" r="17.3323" fill="#5122A5"/>
<circle cx="82.1247" cy="152.911" r="6.30267" fill="white"/>
<circle cx="195.573" cy="156.062" r="31.5134" fill="white" stroke="#602CBC" stroke-width="6.30267"/>
<circle cx="195.573" cy="156.062" r="17.3323" fill="#5122A5"/>
<circle cx="189.27" cy="152.911" r="6.30267" fill="white"/>
<path d="M112.062 211.211C124.668 235.634 160.12 235.634 173.514 211.211" stroke="#602CBC" stroke-width="6.30267" stroke-linecap="round"/>
<defs>
<filter id="filter0_i" x="0.189941" y="152.911" width="28.362" height="67.7537" filterUnits="userSpaceOnUse" color-interpolation-filters="sRGB">
<feFlood flood-opacity="0" result="BackgroundImageFix"/>
<feBlend mode="normal" in="SourceGraphic" in2="BackgroundImageFix" result="shape"/>
<feColorMatrix in="SourceAlpha" type="matrix" values="0 0 0 0 0 0 0 0 0 0 0 0 0 0 0 0 0 0 127 0" result="hardAlpha"/>
<feOffset dx="12.6053" dy="4.727"/>
<feComposite in2="hardAlpha" operator="arithmetic" k2="-1" k3="1"/>
<feColorMatrix type="matrix" values="0 0 0 0 1 0 0 0 0 1 0 0 0 0 1 0 0 0 0.25 0"/>
<feBlend mode="normal" in2="shape" result="effect1_innerShadow"/>
</filter>
<filter id="filter1_i" x="108.911" y="74.1276" width="69.3294" height="40.9674" filterUnits="userSpaceOnUse" color-interpolation-filters="sRGB">
<feFlood flood-opacity="0" result="BackgroundImageFix"/>
<feBlend mode="normal" in="SourceGraphic" in2="BackgroundImageFix" result="shape"/>
<feColorMatrix in="SourceAlpha" type="matrix" values="0 0 0 0 0 0 0 0 0 0 0 0 0 0 0 0 0 0 127 0" result="hardAlpha"/>
<feOffset dx="12.6053" dy="4.727"/>
<feComposite in2="hardAlpha" operator="arithmetic" k2="-1" k3="1"/>
<feColorMatrix type="matrix" values="0 0 0 0 1 0 0 0 0 1 0 0 0 0 1 0 0 0 0.25 0"/>
<feBlend mode="normal" in2="shape" result="effect1_innerShadow"/>
</filter>
<filter id="filter2_i" x="118.365" y="0.0711975" width="50.4214" height="50.4214" filterUnits="userSpaceOnUse" color-interpolation-filters="sRGB">
<feFlood flood-opacity="0" result="BackgroundImageFix"/>
<feBlend mode="normal" in="SourceGraphic" in2="BackgroundImageFix" result="shape"/>
<feColorMatrix in="SourceAlpha" type="matrix" values="0 0 0 0 0 0 0 0 0 0 0 0 0 0 0 0 0 0 127 0" result="hardAlpha"/>
<feOffset dx="12.6053" dy="4.727"/>
<feComposite in2="hardAlpha" operator="arithmetic" k2="-1" k3="1"/>
<feColorMatrix type="matrix" values="0 0 0 0 1 0 0 0 0 1 0 0 0 0 1 0 0 0 0.25 0"/>
<feBlend mode="normal" in2="shape" result="effect1_innerShadow"/>
</filter>
<filter id="filter3_i" x="14.3711" y="96.1868" width="256.834" height="170.172" filterUnits="userSpaceOnUse" color-interpolation-filters="sRGB">
<feFlood flood-opacity="0" result="BackgroundImageFix"/>
<feBlend mode="normal" in="SourceGraphic" in2="BackgroundImageFix" result="shape"/>
<feColorMatrix in="SourceAlpha" type="matrix" values="0 0 0 0 0 0 0 0 0 0 0 0 0 0 0 0 0 0 127 0" result="hardAlpha"/>
<feOffset dx="12.6053" dy="4.727"/>
<feComposite in2="hardAlpha" operator="arithmetic" k2="-1" k3="1"/>
<feColorMatrix type="matrix" values="0 0 0 0 1 0 0 0 0 1 0 0 0 0 1 0 0 0 0.25 0"/>
<feBlend mode="normal" in2="shape" result="effect1_innerShadow"/>
</filter>
</defs>
</svg>
