<svg width="286" height="267" viewBox="0 0 286 267" fill="none" xmlns="http://www.w3.org/2000/svg">
<g filter="url(#filter0_i)">
<rect x="0.189941" y="152.84" width="28.362" height="67.7537" rx="14.181" fill="#3CAA7C"/>
</g>
<rect x="3.34128" y="155.991" width="22.0593" height="61.451" rx="11.0297" stroke="#2D6A5F" stroke-width="6.30267"/>
<rect x="260.175" y="155.991" width="22.0593" height="61.451" rx="11.0297" fill="#3CAA7C" stroke="#2D6A5F" stroke-width="6.30267"/>
<line x1="143.576" y1="45.6943" x2="143.576" y2="100.843" stroke="#2D6A5F" stroke-width="6.30267"/>
<g filter="url(#filter1_i)">
<rect x="108.911" y="74.0564" width="69.3294" height="40.9674" rx="20.4837" fill="#3CAA7C"/>
</g>
<rect x="112.062" y="77.2077" width="63.0267" height="34.6647" rx="17.3323" stroke="#2D6A5F" stroke-width="6.30267"/>
<g filter="url(#filter2_i)">
<circle cx="143.576" cy="25.2107" r="25.2107" fill="#3CAA7C"/>
</g>
<circle cx="143.576" cy="25.2107" r="22.0593" stroke="#2D6A5F" stroke-width="6.30267"/>
<g filter="url(#filter3_i)">
<path d="M14.3708 182.777C14.3708 134.915 53.1706 96.1155 101.033 96.1155H184.543C232.405 96.1155 271.205 134.915 271.205 182.777V223.745C271.205 247.24 252.158 266.288 228.662 266.288H56.9139C33.418 266.288 14.3708 247.24 14.3708 223.745V182.777Z" fill="#3CAA7C"/>
</g>
<path d="M17.5222 182.777C17.5222 136.656 54.9111 99.2669 101.033 99.2669H184.543C230.665 99.2669 268.053 136.656 268.053 182.777V223.745C268.053 245.5 250.417 263.136 228.662 263.136H56.9139C35.1584 263.136 17.5222 245.5 17.5222 223.745V182.777Z" stroke="#2D6A5F" stroke-width="6.30267"/>
<circle cx="88.4274" cy="155.991" r="31.5134" fill="white" stroke="#2D6A5F" stroke-width="6.30267"/>
<circle cx="88.4273" cy="155.991" r="17.3323" fill="#0C0C0C"/>
<circle cx="82.1247" cy="152.84" r="6.30267" fill="white"/>
<circle cx="195.573" cy="155.991" r="31.5134" fill="white" stroke="#2D6A5F" stroke-width="6.30267"/>
<circle cx="195.573" cy="155.991" r="17.3323" fill="#0C0C0C"/>
<circle cx="189.27" cy="152.84" r="6.30267" fill="white"/>
<path d="M112.062 211.139C124.668 235.562 160.12 235.562 173.513 211.139" stroke="#2D6A5F" stroke-width="6.30267" stroke-linecap="round"/>
<defs>
<filter id="filter0_i" x="0.189941" y="152.84" width="28.362" height="67.7537" filterUnits="userSpaceOnUse" color-interpolation-filters="sRGB">
<feFlood flood-opacity="0" result="BackgroundImageFix"/>
<feBlend mode="normal" in="SourceGraphic" in2="BackgroundImageFix" result="shape"/>
<feColorMatrix in="SourceAlpha" type="matrix" values="0 0 0 0 0 0 0 0 0 0 0 0 0 0 0 0 0 0 127 0" result="hardAlpha"/>
<feOffset dx="12.6053" dy="4.727"/>
<feComposite in2="hardAlpha" operator="arithmetic" k2="-1" k3="1"/>
<feColorMatrix type="matrix" values="0 0 0 0 1 0 0 0 0 1 0 0 0 0 1 0 0 0 0.25 0"/>
<feBlend mode="normal" in2="shape" result="effect1_innerShadow"/>
</filter>
<filter id="filter1_i" x="108.911" y="74.0564" width="69.3294" height="40.9674" filterUnits="userSpaceOnUse" color-interpolation-filters="sRGB">
<feFlood flood-opacity="0" result="BackgroundImageFix"/>
<feBlend mode="normal" in="SourceGraphic" in2="BackgroundImageFix" result="shape"/>
<feColorMatrix in="SourceAlpha" type="matrix" values="0 0 0 0 0 0 0 0 0 0 0 0 0 0 0 0 0 0 127 0" result="hardAlpha"/>
<feOffset dx="12.6053" dy="4.727"/>
<feComposite in2="hardAlpha" operator="arithmetic" k2="-1" k3="1"/>
<feColorMatrix type="matrix" values="0 0 0 0 1 0 0 0 0 1 0 0 0 0 1 0 0 0 0.25 0"/>
<feBlend mode="normal" in2="shape" result="effect1_innerShadow"/>
</filter>
<filter id="filter2_i" x="118.365" y="0" width="50.4214" height="50.4214" filterUnits="userSpaceOnUse" color-interpolation-filters="sRGB">
<feFlood flood-opacity="0" result="BackgroundImageFix"/>
<feBlend mode="normal" in="SourceGraphic" in2="BackgroundImageFix" result="shape"/>
<feColorMatrix in="SourceAlpha" type="matrix" values="0 0 0 0 0 0 0 0 0 0 0 0 0 0 0 0 0 0 127 0" result="hardAlpha"/>
<feOffset dx="12.6053" dy="4.727"/>
<feComposite in2="hardAlpha" operator="arithmetic" k2="-1" k3="1"/>
<feColorMatrix type="matrix" values="0 0 0 0 1 0 0 0 0 1 0 0 0 0 1 0 0 0 0.25 0"/>
<feBlend mode="normal" in2="shape" result="effect1_innerShadow"/>
</filter>
<filter id="filter3_i" x="14.3708" y="96.1155" width="256.834" height="170.172" filterUnits="userSpaceOnUse" color-interpolation-filters="sRGB">
<feFlood flood-opacity="0" result="BackgroundImageFix"/>
<feBlend mode="normal" in="SourceGraphic" in2="BackgroundImageFix" result="shape"/>
<feColorMatrix in="SourceAlpha" type="matrix" values="0 0 0 0 0 0 0 0 0 0 0 0 0 0 0 0 0 0 127 0" result="hardAlpha"/>
<feOffset dx="12.6053" dy="4.727"/>
<feComposite in2="hardAlpha" operator="arithmetic" k2="-1" k3="1"/>
<feColorMatrix type="matrix" values="0 0 0 0 1 0 0 0 0 1 0 0 0 0 1 0 0 0 0.25 0"/>
<feBlend mode="normal" in2="shape" result="effect1_innerShadow"/>
</filter>
</defs>
</svg>
