<svg width="286" height="267" viewBox="0 0 286 267" fill="none" xmlns="http://www.w3.org/2000/svg">
<g filter="url(#filter0_i)">
<rect x="0.804199" y="152.911" width="28.362" height="67.7537" rx="14.181" fill="#3EC2BC" fill-opacity="0.962"/>
</g>
<rect x="3.95553" y="156.062" width="22.0593" height="61.451" rx="11.0297" stroke="#137D78" stroke-width="6.30267"/>
<rect x="260.79" y="156.062" width="22.0593" height="61.451" rx="11.0297" fill="#3EC2BC" fill-opacity="0.962" stroke="#137D78" stroke-width="6.30267"/>
<line x1="144.19" y1="45.7655" x2="144.19" y2="100.914" stroke="#137D78" stroke-width="6.30267"/>
<g filter="url(#filter1_i)">
<rect x="109.525" y="74.1276" width="69.3294" height="40.9674" rx="20.4837" fill="#3EC2BC" fill-opacity="0.962"/>
</g>
<rect x="112.676" y="77.2789" width="63.0267" height="34.6647" rx="17.3323" stroke="#137D78" stroke-width="6.30267"/>
<g filter="url(#filter2_i)">
<circle cx="144.19" cy="25.2819" r="25.2107" fill="#3EC2BC" fill-opacity="0.962"/>
</g>
<circle cx="144.19" cy="25.2819" r="22.0593" stroke="#137D78" stroke-width="6.30267"/>
<g filter="url(#filter3_i)">
<path d="M14.9851 182.849C14.9851 134.987 53.7849 96.1868 101.647 96.1868H185.157C233.019 96.1868 271.819 134.987 271.819 182.849V223.816C271.819 247.312 252.772 266.359 229.276 266.359H57.5281C34.0323 266.359 14.9851 247.312 14.9851 223.816V182.849Z" fill="#3EC2BC" fill-opacity="0.962"/>
</g>
<path d="M18.1364 182.849C18.1364 136.727 55.5253 99.3382 101.647 99.3382H185.157C231.279 99.3382 268.668 136.727 268.668 182.849V223.816C268.668 245.571 251.031 263.208 229.276 263.208H57.5281C35.7727 263.208 18.1364 245.571 18.1364 223.816V182.849Z" stroke="#137D78" stroke-width="6.30267"/>
<circle cx="89.0416" cy="156.062" r="31.5134" fill="white" stroke="#137D78" stroke-width="6.30267"/>
<circle cx="89.0418" cy="156.062" r="17.3323" fill="#0C0C0C"/>
<circle cx="82.739" cy="152.911" r="6.30267" fill="white"/>
<circle cx="196.187" cy="156.062" r="31.5134" fill="white" stroke="#137D78" stroke-width="6.30267"/>
<circle cx="196.187" cy="156.062" r="17.3323" fill="#0C0C0C"/>
<circle cx="189.884" cy="152.911" r="6.30267" fill="white"/>
<path d="M112.677 211.211C125.282 235.634 160.734 235.634 174.128 211.211" stroke="#137D78" stroke-width="6.30267" stroke-linecap="round"/>
<defs>
<filter id="filter0_i" x="0.804199" y="152.911" width="28.362" height="67.7537" filterUnits="userSpaceOnUse" color-interpolation-filters="sRGB">
<feFlood flood-opacity="0" result="BackgroundImageFix"/>
<feBlend mode="normal" in="SourceGraphic" in2="BackgroundImageFix" result="shape"/>
<feColorMatrix in="SourceAlpha" type="matrix" values="0 0 0 0 0 0 0 0 0 0 0 0 0 0 0 0 0 0 127 0" result="hardAlpha"/>
<feOffset dx="12.6053" dy="4.727"/>
<feComposite in2="hardAlpha" operator="arithmetic" k2="-1" k3="1"/>
<feColorMatrix type="matrix" values="0 0 0 0 1 0 0 0 0 1 0 0 0 0 1 0 0 0 0.25 0"/>
<feBlend mode="normal" in2="shape" result="effect1_innerShadow"/>
</filter>
<filter id="filter1_i" x="109.525" y="74.1276" width="69.3294" height="40.9674" filterUnits="userSpaceOnUse" color-interpolation-filters="sRGB">
<feFlood flood-opacity="0" result="BackgroundImageFix"/>
<feBlend mode="normal" in="SourceGraphic" in2="BackgroundImageFix" result="shape"/>
<feColorMatrix in="SourceAlpha" type="matrix" values="0 0 0 0 0 0 0 0 0 0 0 0 0 0 0 0 0 0 127 0" result="hardAlpha"/>
<feOffset dx="12.6053" dy="4.727"/>
<feComposite in2="hardAlpha" operator="arithmetic" k2="-1" k3="1"/>
<feColorMatrix type="matrix" values="0 0 0 0 1 0 0 0 0 1 0 0 0 0 1 0 0 0 0.25 0"/>
<feBlend mode="normal" in2="shape" result="effect1_innerShadow"/>
</filter>
<filter id="filter2_i" x="118.979" y="0.0711975" width="50.4214" height="50.4214" filterUnits="userSpaceOnUse" color-interpolation-filters="sRGB">
<feFlood flood-opacity="0" result="BackgroundImageFix"/>
<feBlend mode="normal" in="SourceGraphic" in2="BackgroundImageFix" result="shape"/>
<feColorMatrix in="SourceAlpha" type="matrix" values="0 0 0 0 0 0 0 0 0 0 0 0 0 0 0 0 0 0 127 0" result="hardAlpha"/>
<feOffset dx="12.6053" dy="4.727"/>
<feComposite in2="hardAlpha" operator="arithmetic" k2="-1" k3="1"/>
<feColorMatrix type="matrix" values="0 0 0 0 1 0 0 0 0 1 0 0 0 0 1 0 0 0 0.25 0"/>
<feBlend mode="normal" in2="shape" result="effect1_innerShadow"/>
</filter>
<filter id="filter3_i" x="14.9851" y="96.1868" width="256.834" height="170.172" filterUnits="userSpaceOnUse" color-interpolation-filters="sRGB">
<feFlood flood-opacity="0" result="BackgroundImageFix"/>
<feBlend mode="normal" in="SourceGraphic" in2="BackgroundImageFix" result="shape"/>
<feColorMatrix in="SourceAlpha" type="matrix" values="0 0 0 0 0 0 0 0 0 0 0 0 0 0 0 0 0 0 127 0" result="hardAlpha"/>
<feOffset dx="12.6053" dy="4.727"/>
<feComposite in2="hardAlpha" operator="arithmetic" k2="-1" k3="1"/>
<feColorMatrix type="matrix" values="0 0 0 0 1 0 0 0 0 1 0 0 0 0 1 0 0 0 0.25 0"/>
<feBlend mode="normal" in2="shape" result="effect1_innerShadow"/>
</filter>
</defs>
</svg>
